<?xml version="1.0" encoding="UTF-8" standalone="no"?>
<svg
   version="1.1"
   id="Layer_1"
   x="0px"
   y="0px"
   width="650"
   viewBox="0 0 650 650"
   enable-background="new 0 0 1024 1024"
   xml:space="preserve"
   height="650"
   xmlns="http://www.w3.org/2000/svg"
   xmlns:svg="http://www.w3.org/2000/svg"><defs
   id="defs7" />







<g
   id="g15"
   style="fill:#000000;fill-opacity:0.993711"
   transform="translate(-199.28742,-180.83155)"><g
     id="g16"
     style="fill:#000000;fill-opacity:0.993711"><path
       fill="#000000"
       opacity="1"
       stroke="none"
       d="m 673.11987,719.18054 c -19.30841,11.70484 -40.3825,17.34772 -61.94775,20.96594 -46.85999,7.86219 -94.18018,7.75959 -141.4837,6.71943 -27.12452,-0.59644 -54.20182,-2.34229 -80.91889,-7.52338 -34.5289,-6.69605 -66.24679,-19.06909 -90.67026,-45.76965 -18.47918,-20.20215 -29.18045,-44.36017 -35.24731,-70.73639 -5.27432,-22.93073 -7.17726,-46.2641 -8.30267,-69.73236 -0.95081,-19.82721 -1.17991,-39.65235 -0.71799,-59.4614 0.77984,-33.44174 2.64731,-66.83765 9.52713,-99.707 10.48785,-50.10757 40.32883,-83.20886 88.40256,-100.24313 23.40222,-8.2923 47.62979,-12.10889 72.27011,-14.08948 27.11429,-2.17944 54.25519,-1.95429 81.40817,-1.56931 1.96207,0.0278 3.98367,-0.19238 5.71435,0.82859 0.52131,2.12515 -1.11355,2.81585 -2.10192,3.78073 -4.18592,4.08618 -8.41742,8.25598 -11.23386,13.33712 -2.50534,4.51993 -5.77686,5.45267 -10.54413,5.43351 -30.83233,-0.124 -61.60492,0.79254 -91.80762,7.95471 -23.60095,5.59662 -45.76071,14.32733 -64.39294,30.43921 -19.98676,17.28314 -29.8374,40.0029 -34.71494,65.31463 -4.00872,20.8032 -5.39904,41.84223 -6.41058,62.99213 -1.17279,24.52139 -0.37656,48.96625 1.58914,73.32904 2.29941,28.49921 7.39081,56.45856 22.99564,81.35309 13.09106,20.88452 31.34897,35.58752 53.6701,45.52997 23.60511,10.51428 48.6388,14.50464 74.17374,16.45971 28.77762,2.20337 57.60129,2.31836 86.40628,1.75007 29.62579,-0.58442 59.1861,-2.6092 87.8617,-11.03174 25.89502,-7.60584 48.34582,-20.57636 64.85156,-42.53302 12.92676,-17.19586 19.70325,-36.95111 23.1015,-57.87311 7.16333,-44.10345 6.54822,-88.54791 4.96741,-132.99927 -0.20655,-5.80649 -1.0539,-11.58911 -1.55799,-17.38681 -0.15478,-1.78048 -0.72339,-3.64328 0.8086,-5.53338 9.88952,1.04776 19.85724,3.25012 30.06866,2.2525 3.1983,-0.31247 3.02612,2.58114 3.22925,4.61578 0.7439,7.44754 1.53735,14.89865 1.96021,22.36835 2.10015,37.09756 2.64495,74.18143 0.45739,111.32614 -1.56915,26.64472 -4.17267,53.06738 -11.26764,78.85175 -6.23962,22.67572 -16.72888,43.14325 -33.40435,60.02435 -7.86164,7.95862 -16.61347,14.88641 -26.73896,20.56268 z"
       id="path1"
       style="fill:#000000;fill-opacity:0.993711" /><path
       fill="#000000"
       opacity="1"
       stroke="none"
       d="m 565.83008,271.66113 c 23.04083,-5.18887 45.82184,-6.90979 68.71246,-2.14822 20.39765,4.24292 31.03076,15.45755 34.71344,36.20615 3.8443,21.65823 5.97705,43.48803 6.10309,65.50579 0.0314,5.48789 0.32629,10.98279 0.73486,16.45694 0.25861,3.46469 -1.0495,5.43161 -4.47052,4.53296 -6.97912,-1.83334 -11.75415,1.43665 -16.78692,5.64307 -12.50934,10.4555 -27.75415,16.44314 -41.69239,24.57492 -18.72113,10.92215 -34.32641,24.39026 -42.58001,45.28027 -4.18628,10.59549 -12.03473,13.41681 -26.34955,11.39243 -1.64734,-0.23297 -3.28662,-0.54029 -4.91626,-0.87775 -8.60004,-1.78088 -12.22528,-7.11471 -10.18976,-15.62152 1.89929,-7.93783 4.55566,-15.64227 7.98615,-23.08621 10.15576,-22.03739 26.51611,-38.44602 46.32073,-51.89481 10.46058,-7.10348 21.49671,-13.42035 30.87922,-22.04971 5.8244,-5.35684 10.9328,-11.23477 13.73852,-18.76514 5.27393,-14.15475 0.0589,-27.77679 -13.32489,-34.63934 -15.28076,-7.83524 -43.43091,-5.48032 -54.28955,15.26929 -1.95679,3.73919 -3.37476,7.65469 -3.97302,11.77917 -1.96814,13.56854 -9.99329,21.28836 -23.00244,24.3747 -7.02759,1.66723 -14.09027,2.63494 -21.23725,0.80737 -9.24643,-2.36441 -13.44912,-7.64008 -13.5123,-17.19122 -0.14443,-21.83979 9.96915,-38.90873 25.22794,-53.47574 11.74921,-11.21652 26.0304,-17.75809 41.90845,-22.0734 z"
       id="path2"
       style="fill:#000000;fill-opacity:0.993711" /><path
       fill="#000000"
       opacity="1"
       stroke="none"
       d="m 752.41101,402.69482 c -19.6311,4.31785 -38.10327,1.28821 -56.22864,-5.52392 -2.90967,-1.09357 -4.33172,-2.62979 -4.11621,-5.85727 1.16852,-17.49985 0.16034,-34.98157 -1.50567,-52.37177 -1.77106,-18.48748 -2.86506,-37.23455 -11.43036,-54.33691 -1.18048,-2.35706 -2.49561,-4.64664 -3.79047,-7.04535 2.54364,-2.70776 5.35108,-1.86594 8.0481,-1.33743 8.58978,1.68323 16.3858,5.55249 24.25775,9.1214 17.70031,8.02487 35.72052,8.34796 54.08203,2.78613 2.86725,-0.86853 5.70294,-1.87128 8.61212,-2.56479 4.79663,-1.1434 7.3703,1.11139 6.76648,6.14316 -0.72595,6.04993 -3.28796,11.48419 -6.42596,16.64557 -6.64557,10.9306 -16.12543,18.9158 -27.52411,25.88788 4.90539,5.99868 10.89239,10.10067 17.23553,13.57376 12.20947,6.68506 25.04443,10.69388 39.28595,8.39831 4.88123,-0.7868 6.78729,2.30518 4.73242,7.37299 -4.14087,10.21255 -11.77923,17.69568 -20.13318,24.39236 -9.23577,7.40369 -19.90301,12.03562 -31.86578,14.71588 z"
       id="path3"
       style="fill:#000000;fill-opacity:0.993711" /><path
       fill="#000000"
       opacity="1"
       stroke="none"
       d="m 523.47778,541.94092 c -13.62344,-5.10059 -19.82235,-15.61243 -17.7308,-29.56152 1.69418,-11.2988 12.58169,-20.17396 25.38742,-20.6951 13.01996,-0.52982 23.70062,5.02813 27.88721,14.51202 7.43292,16.83792 -4.61664,36.00943 -23.31263,37.08304 -4.01123,0.23041 -7.98516,0.0488 -12.2312,-1.33844 z"
       id="path7"
       style="fill:#000000;fill-opacity:0.993711" /><path
       id="rect7"
       style="fill:#000000;fill-opacity:0.993711;stroke-width:0.883341"
       d="m 364.71875,488.27539 c -9.99227,0 -18.03711,7.71793 -18.03711,17.30469 v 2.09765 c 0,9.58676 8.04484,17.30469 18.03711,17.30469 h 119.99414 a 50,50 0 0 1 -0.9668,-9.78711 50,50 0 0 1 7.86524,-26.91992 z m 211.16211,0 a 50,50 0 0 1 7.86523,26.91992 50,50 0 0 1 -0.96679,9.78711 h 55.94336 c 9.99227,0 18.03711,-7.71793 18.03711,-17.30469 v -2.09765 c 0,-9.58676 -8.04484,-17.30469 -18.03711,-17.30469 z m -212.91797,53.65625 c -9.99226,0 -18.03711,7.71793 -18.03711,17.30469 v 2.09765 c 0,9.58676 8.04485,17.30469 18.03711,17.30469 H 636.9668 c 9.99226,0 18.03711,-7.71793 18.03711,-17.30469 v -2.09765 c 0,-9.58676 -8.04485,-17.30469 -18.03711,-17.30469 h -60.96875 a 50,50 0 0 1 -42.25196,23.26367 50,50 0 0 1 -42.25195,-23.26367 z" /><path
       id="rect7-4-8-5"
       style="fill:#000000;fill-opacity:0.993711;stroke-width:0.861495"
       d="m 363.44779,598.53929 213.52099,0.7634 c 11.75161,0.042 19.29561,6.26604 19.29561,18.01773 0,11.75169 -6.88559,17.35458 -18.63728,17.3594 l -184.66744,0.0757 c -25.10915,0.0103 -41.49565,-5.99748 -45.38052,-17.81567 -3.66982,-11.16399 4.11703,-18.4426 15.86864,-18.40059 z" /></g></g></svg>
